<?xml version="1.0" standalone="no"?>
<!DOCTYPE svg PUBLIC "-//W3C//DTD SVG 20010904//EN"
 "http://www.w3.org/TR/2001/REC-SVG-20010904/DTD/svg10.dtd">
<svg version="1.0" xmlns="http://www.w3.org/2000/svg"
 width="56.000000pt" height="54.000000pt" viewBox="0 0 56.000000 54.000000"
 preserveAspectRatio="xMidYMid meet">

<g transform="translate(0.000000,54.000000) scale(0.100000,-0.100000)"
fill="#000000" stroke="none">
<path d="M110 441 c-22 -15 -22 -217 0 -231 19 -12 26 -4 11 14 -8 9 -11 46
-9 107 l3 94 175 0 175 0 3 -98 c3 -95 2 -97 -22 -106 -13 -6 -27 -15 -31 -21
-5 -8 -11 -5 -20 7 -18 25 -28 12 -15 -21 l10 -28 31 26 c17 14 37 26 45 26 7
0 16 11 20 25 8 33 1 191 -9 202 -12 12 -349 15 -367 4z"/>
<path d="M193 385 c-14 -10 -26 -34 -33 -68 -9 -46 -8 -57 10 -94 28 -59 26
-68 -21 -83 -47 -16 -65 -41 -49 -70 10 -18 21 -20 143 -20 151 0 180 9 160
52 -7 15 -26 29 -52 38 -46 15 -49 25 -21 81 16 34 18 49 10 87 -13 70 -19 79
-52 86 -48 9 -72 7 -95 -9z m8 -38 c-16 -16 -26 0 -10 19 9 11 15 12 17 4 2
-6 -1 -17 -7 -23z m107 21 c22 -22 13 -38 -21 -38 -34 0 -57 15 -57 37 0 17
62 17 78 1z m-20 -55 c20 -3 33 -11 34 -22 3 -38 -5 -67 -24 -88 -48 -51 -121
-10 -121 68 0 47 16 62 53 54 14 -4 40 -9 58 -12z m0 -162 c-5 -24 -35 -37
-55 -25 -34 22 -27 39 17 39 30 0 40 -3 38 -14z m-78 -31 c25 -25 55 -25 79
-1 19 19 22 19 60 4 27 -11 41 -22 41 -35 0 -17 -10 -18 -140 -18 -130 0 -140
1 -140 19 0 16 15 26 78 50 1 1 11 -8 22 -19z"/>
<path d="M205 270 c3 -5 10 -10 16 -10 5 0 9 5 9 10 0 6 -7 10 -16 10 -8 0
-12 -4 -9 -10z"/>
<path d="M275 270 c3 -5 10 -10 16 -10 5 0 9 5 9 10 0 6 -7 10 -16 10 -8 0
-12 -4 -9 -10z"/>
<path d="M210 228 c0 -11 39 -20 60 -13 33 10 23 20 -20 20 -22 0 -40 -3 -40
-7z"/>
</g>
</svg>
