<?xml version="1.0" standalone="no"?>
<!DOCTYPE svg PUBLIC "-//W3C//DTD SVG 20010904//EN"
 "http://www.w3.org/TR/2001/REC-SVG-20010904/DTD/svg10.dtd">
<svg version="1.0" xmlns="http://www.w3.org/2000/svg"
 width="55.000000pt" height="55.000000pt" viewBox="0 0 55.000000 55.000000"
 preserveAspectRatio="xMidYMid meet">

<g transform="translate(0.000000,55.000000) scale(0.100000,-0.100000)"
fill="#000000" stroke="none">
<path d="M216 460 c-41 -13 -64 -38 -78 -82 -9 -29 -9 -41 0 -50 9 -9 12 -6
12 15 0 39 21 77 51 93 76 39 159 -10 159 -93 0 -20 3 -24 11 -16 17 17 -10
92 -41 114 -32 22 -77 30 -114 19z"/>
<path d="M285 389 c-11 -17 -49 -27 -67 -18 -10 5 -19 5 -23 0 -3 -5 3 -12 14
-16 11 -3 22 -12 25 -20 8 -23 36 -18 46 9 5 13 14 27 19 31 14 8 14 25 2 25
-6 0 -13 -5 -16 -11z"/>
<path d="M102 288 c-7 -7 -12 -41 -12 -84 l0 -72 42 -31 c50 -37 52 -37 78
-11 28 28 121 28 157 0 31 -24 38 -25 61 -2 10 9 27 22 38 28 13 7 20 24 22
50 2 34 -3 45 -41 87 l-44 47 -144 0 c-100 0 -149 -4 -157 -12z m323 -38 l29
-30 -37 0 c-30 0 -37 4 -37 20 0 11 -5 20 -11 20 -6 0 -9 -12 -7 -27 3 -26 7
-28 56 -31 l52 -3 0 -35 c0 -39 -9 -43 -35 -14 -10 11 -24 20 -30 20 -7 0 -24
-9 -38 -20 -36 -28 -127 -28 -152 0 -10 11 -24 20 -30 20 -7 0 -24 -9 -38 -20
-14 -11 -28 -20 -31 -20 -3 0 -6 34 -6 75 l0 75 143 0 143 0 29 -30z m-220
-130 c0 -18 -6 -26 -23 -28 -24 -4 -38 18 -28 44 3 9 15 14 28 12 17 -2 23
-10 23 -28z m220 0 c0 -18 -6 -26 -23 -28 -24 -4 -38 18 -28 44 3 9 15 14 28
12 17 -2 23 -10 23 -28z"/>
<path d="M175 230 c3 -5 35 -10 71 -10 36 0 64 4 64 10 0 6 -30 10 -71 10 -44
0 -68 -4 -64 -10z"/>
<path d="M245 200 c3 -5 19 -10 36 -10 16 0 29 5 29 10 0 6 -16 10 -36 10 -21
0 -33 -4 -29 -10z"/>
</g>
</svg>
