<?xml version="1.0" standalone="no"?>
<!DOCTYPE svg PUBLIC "-//W3C//DTD SVG 20010904//EN"
 "http://www.w3.org/TR/2001/REC-SVG-20010904/DTD/svg10.dtd">
<svg version="1.0" xmlns="http://www.w3.org/2000/svg"
 width="55.000000pt" height="52.000000pt" viewBox="0 0 55.000000 52.000000"
 preserveAspectRatio="xMidYMid meet">

<g transform="translate(0.000000,52.000000) scale(0.100000,-0.100000)"
fill="#000000" stroke="none">
<path d="M155 434 c-9 -9 -13 -19 -9 -23 4 -3 9 0 11 7 3 9 39 12 129 12 l124
0 -2 -177 c-2 -130 -6 -177 -15 -181 -9 -2 -13 8 -13 32 l0 36 -50 0 c-27 0
-50 -4 -50 -10 0 -5 18 -10 40 -10 22 0 40 -4 40 -9 0 -5 3 -16 6 -25 5 -14
-10 -16 -130 -16 l-136 0 0 25 c0 14 -5 25 -11 25 -11 0 -4 -48 8 -60 2 -3 71
-6 152 -8 127 -3 151 -1 165 13 13 14 16 39 16 145 0 126 0 129 23 132 17 2
23 10 25 39 5 63 -9 69 -168 69 -114 0 -141 -3 -155 -16z m305 -39 c0 -24 -5
-35 -15 -35 -10 0 -15 11 -15 35 0 24 5 35 15 35 10 0 15 -11 15 -35z"/>
<path d="M160 372 c-45 -7 -70 -40 -70 -93 0 -29 6 -51 15 -59 8 -7 15 -29 15
-50 l0 -37 60 0 60 0 0 35 c0 20 7 43 16 53 21 23 21 95 -1 119 -21 23 -62 37
-95 32z m75 -37 c33 -32 33 -78 0 -110 -32 -33 -78 -33 -110 0 -50 49 -15 135
55 135 19 0 40 -9 55 -25z m-15 -168 c0 -15 -5 -18 -22 -14 -12 3 -30 2 -40
-4 -15 -8 -18 -6 -18 13 0 20 5 23 40 23 33 1 40 -2 40 -18z"/>
<path d="M153 330 c-63 -26 -25 -121 42 -104 45 11 59 60 25 94 -22 22 -33 23
-67 10z m57 -25 c26 -32 -13 -81 -47 -59 -23 14 -28 41 -13 59 16 19 44 19 60
0z"/>
<path d="M320 340 c0 -5 11 -10 25 -10 14 0 25 5 25 10 0 6 -11 10 -25 10 -14
0 -25 -4 -25 -10z"/>
<path d="M320 300 c0 -5 11 -10 25 -10 14 0 25 5 25 10 0 6 -11 10 -25 10 -14
0 -25 -4 -25 -10z"/>
<path d="M320 260 c0 -5 11 -10 25 -10 14 0 25 5 25 10 0 6 -11 10 -25 10 -14
0 -25 -4 -25 -10z"/>
<path d="M320 220 c0 -5 11 -10 25 -10 14 0 25 5 25 10 0 6 -11 10 -25 10 -14
0 -25 -4 -25 -10z"/>
</g>
</svg>
