<?xml version="1.0" standalone="no"?>
<!DOCTYPE svg PUBLIC "-//W3C//DTD SVG 20010904//EN"
 "http://www.w3.org/TR/2001/REC-SVG-20010904/DTD/svg10.dtd">
<svg version="1.0" xmlns="http://www.w3.org/2000/svg"
 width="53.000000pt" height="52.000000pt" viewBox="0 0 53.000000 52.000000"
 preserveAspectRatio="xMidYMid meet">

<g transform="translate(0.000000,52.000000) scale(0.100000,-0.100000)"
fill="#000000" stroke="none">
<path d="M150 433 c-27 -19 -27 -67 1 -86 43 -30 95 12 78 63 -12 33 -49 44
-79 23z m60 -18 c15 -18 10 -45 -12 -59 -35 -22 -74 27 -48 59 16 19 44 19 60
0z"/>
<path d="M277 368 c-10 -8 -19 -23 -20 -36 -1 -21 -5 -22 -89 -22 -69 0 -88 3
-88 14 0 8 6 16 13 19 6 2 9 7 6 11 -4 4 -14 -1 -24 -10 -14 -15 -16 -35 -13
-146 2 -101 6 -131 18 -138 20 -13 316 -13 341 0 10 6 19 20 19 32 0 12 5 36
12 54 12 34 8 54 -29 161 -14 38 -43 67 -43 43 0 -6 5 -10 10 -10 6 0 10 -7
10 -15 0 -28 -38 -16 -49 15 -5 17 -14 30 -20 30 -5 0 -15 2 -23 5 -7 3 -22 0
-31 -7z m57 -24 c11 -29 6 -34 -29 -34 -36 0 -46 15 -23 38 17 17 45 15 52 -4z
m86 -84 c0 -29 -1 -30 -49 -30 -53 0 -81 -17 -81 -50 0 -33 28 -50 81 -50 48
0 49 -1 49 -30 l0 -30 -168 2 -167 3 -3 108 -3 107 171 0 170 0 0 -30z m20
-80 l0 -30 -60 0 c-63 0 -79 11 -66 45 4 11 21 15 66 15 l60 0 0 -30z"/>
<path d="M110 186 c0 -41 5 -78 10 -81 6 -4 10 23 10 74 0 47 -4 81 -10 81 -6
0 -10 -31 -10 -74z"/>
<path d="M330 180 c0 -5 5 -10 10 -10 6 0 10 5 10 10 0 6 -4 10 -10 10 -5 0
-10 -4 -10 -10z"/>
</g>
</svg>
