<?xml version="1.0" standalone="no"?>
<!DOCTYPE svg PUBLIC "-//W3C//DTD SVG 20010904//EN"
 "http://www.w3.org/TR/2001/REC-SVG-20010904/DTD/svg10.dtd">
<svg version="1.0" xmlns="http://www.w3.org/2000/svg"
 width="213.000000pt" height="254.000000pt" viewBox="0 0 213.000000 254.000000"
 preserveAspectRatio="xMidYMid meet">
<metadata>
Created by potrace 1.16, written by Peter Selinger 2001-2019
</metadata>
<g transform="translate(0.000000,254.000000) scale(0.100000,-0.100000)"
fill="#000000" stroke="none">
<path d="M875 2068 c-199 -247 -339 -509 -407 -761 -33 -124 -31 -305 5 -405
51 -146 149 -269 272 -344 103 -63 203 -91 325 -92 125 -1 187 13 299 66 68
33 101 56 166 122 133 134 189 267 188 451 0 162 -47 276 -221 533 -114 171
-177 271 -229 367 -34 64 -43 75 -43 52 0 -35 39 -118 133 -286 85 -151 85
-150 14 -202 -75 -55 -124 -79 -198 -101 -157 -44 -326 -12 -462 88 -80 58
-80 64 -3 205 37 67 100 169 142 226 117 162 130 218 19 81z m696 -768 c29
-91 36 -244 15 -334 -57 -241 -265 -416 -495 -416 -67 0 -62 7 20 26 209 49
356 192 410 401 27 106 28 297 3 408 -11 47 27 -21 47 -85z m-907 -42 c7 -12
6 -31 -2 -65 -11 -40 -10 -57 3 -101 9 -29 15 -68 13 -85 -3 -28 -7 -32 -32
-32 -44 0 -69 41 -74 120 -6 86 4 132 34 162 26 26 42 26 58 1z"/>
<path d="M685 1971 c-253 -210 -416 -475 -458 -743 l-13 -83 -84 -26 c-46 -14
-85 -30 -87 -35 -2 -5 0 -43 5 -84 l7 -75 83 -17 c46 -9 85 -18 87 -20 1 -1
17 -43 34 -91 l31 -89 -55 -61 c-30 -33 -55 -66 -55 -73 0 -13 79 -134 88
-134 3 0 39 12 80 26 85 31 86 30 172 -47 l54 -50 -17 -85 c-10 -48 -17 -88
-15 -89 2 -1 35 -19 75 -39 l72 -36 59 67 59 66 92 -21 c51 -11 94 -22 95 -23
2 -2 14 -38 28 -79 l25 -75 44 -3 c24 -2 63 -1 86 3 l42 6 17 77 c9 42 19 80
23 85 4 4 45 20 91 36 l84 30 35 -29 c20 -15 47 -40 60 -54 14 -14 29 -26 35
-26 6 0 41 20 78 45 l66 44 -15 49 -16 48 50 50 c27 27 68 78 92 113 37 54 42
67 32 83 -15 24 -5 41 19 33 14 -4 23 2 35 25 14 28 14 31 0 36 -9 4 -14 13
-10 22 3 8 1 20 -5 27 -7 9 -7 21 1 39 18 39 -3 57 -26 22 -14 -21 -15 -29 -5
-41 9 -11 10 -19 2 -27 -15 -15 -34 0 -27 23 4 11 2 19 -5 19 -7 0 -10 8 -7
20 6 24 -9 36 -27 21 -7 -6 -21 -9 -30 -5 -9 3 -16 1 -16 -5 0 -6 -8 -11 -19
-11 -12 0 -31 -22 -57 -67 -54 -94 -171 -209 -259 -255 -122 -63 -203 -83
-340 -82 -209 0 -346 55 -480 189 -142 142 -206 302 -206 515 0 281 106 557
321 840 33 44 57 80 53 80 -4 0 -39 -27 -78 -59z"/>
</g>
</svg>
