<?xml version="1.0" standalone="no"?>
<!DOCTYPE svg PUBLIC "-//W3C//DTD SVG 20010904//EN"
 "http://www.w3.org/TR/2001/REC-SVG-20010904/DTD/svg10.dtd">
<svg version="1.0" xmlns="http://www.w3.org/2000/svg"
 width="900.000000pt" height="897.000000pt" viewBox="0 0 900.000000 897.000000"
 preserveAspectRatio="xMidYMid meet">

<g transform="translate(0.000000,897.000000) scale(0.100000,-0.100000)"
fill="#000000" stroke="none">
<path d="M4240 8944 c-575 -69 -1043 -260 -1470 -600 -109 -87 -316 -295 -404
-404 -615 -770 -779 -1800 -431 -2705 194 -505 499 -907 934 -1230 66 -49 121
-93 121 -96 0 -7 -16 -14 -225 -100 -1076 -441 -1931 -1265 -2417 -2329 -123
-268 -232 -593 -292 -865 -15 -66 -33 -137 -41 -158 -21 -54 -18 -105 10 -182
47 -125 114 -192 229 -231 69 -24 185 -16 257 18 100 46 180 149 195 250 3 24
21 107 40 185 234 994 879 1871 1772 2410 593 358 1268 544 1972 545 560 1
1055 -101 1555 -319 1124 -491 1969 -1516 2224 -2698 12 -55 26 -120 32 -145
14 -64 67 -147 117 -186 71 -54 143 -76 237 -72 143 6 243 73 305 203 40 83
48 156 26 222 -8 26 -32 116 -51 198 -267 1125 -956 2108 -1926 2747 -252 167
-530 311 -845 438 -80 32 -149 61 -152 64 -7 7 -19 -3 123 103 354 264 630
593 824 982 111 221 215 549 256 806 23 143 34 404 24 587 -31 552 -247 1109
-605 1558 -88 109 -295 317 -404 404 -380 303 -852 512 -1315 581 -105 16
-586 29 -675 19z m425 -684 c361 -34 687 -146 969 -335 412 -275 723 -701 845
-1155 91 -343 102 -631 35 -967 -118 -597 -507 -1118 -1054 -1411 -387 -207
-857 -282 -1294 -208 -181 31 -281 58 -427 116 -271 108 -528 284 -735 504
-596 633 -730 1559 -338 2337 233 464 670 844 1163 1013 274 94 565 131 836
106z"/>
</g>
</svg>
